<svg xmlns="http://www.w3.org/2000/svg" xmlns:xlink="http://www.w3.org/1999/xlink" x="0px" y="0px" width="96px" height="32px" viewBox="0 0 96 32">
 <!-- icon name edit-76--> 
<g transform="translate(0, 0)"><g class="nc-icon-wrapper" fill="#c3c2b9"><path data-color="color-2" fill="#c3c2b9" d="M12.7,0.3c-0.4-0.4-1-0.4-1.4,0l-7,7C4.1,7.5,4,7.7,4,8v3c0,0.6,0.4,1,1,1h3 c0.3,0,0.5-0.1,0.7-0.3l7-7c0.4-0.4,0.4-1,0-1.4L12.7,0.3z M7.6,10H6V8.4l6-6L13.6,4L7.6,10z"/> <path fill="#c3c2b9" d="M15,10c-0.6,0-1,0.4-1,1v3H2V2h3c0.6,0,1-0.4,1-1S5.6,0,5,0H1C0.4,0,0,0.4,0,1v14c0,0.6,0.4,1,1,1h14 c0.6,0,1-0.4,1-1v-4C16,10.4,15.6,10,15,10z"/></g></g>

 <!-- icon name camera-19--> 
<g transform="translate(16, 0)"><g class="nc-icon-wrapper" fill="#c3c2b9"><path fill="#c3c2b9" d="M15,4h-2.5l-1.7-2.6C10.6,1.2,10.3,1,10,1H6C5.7,1,5.4,1.2,5.2,1.4L3.5,4H1C0.4,4,0,4.4,0,5v9 c0,0.6,0.4,1,1,1h14c0.6,0,1-0.4,1-1V5C16,4.4,15.6,4,15,4z M8,12c-1.7,0-3-1.3-3-3s1.3-3,3-3s3,1.3,3,3S9.7,12,8,12z"/></g></g>

 <!-- icon name shop--> 
<g transform="translate(32, 0)"><g class="nc-icon-wrapper" fill="#c3c2b9"><path fill="#c3c2b9" d="M13.9,0.5C13.7,0.2,13.4,0,13,0H3C2.6,0,2.3,0.2,2.1,0.5C0,4.5,0,4.7,0,5c0,1.1,0.9,2,2,2v8c0,0.6,0.4,1,1,1 h10c0.6,0,1-0.4,1-1V7c1.1,0,2-0.9,2-2C16,4.7,16,4.5,13.9,0.5z M10,14v-4H6v4H4V6.7C4.3,6.9,4.6,7,5,7c0.6,0,1.1-0.3,1.5-0.7 C6.9,6.7,7.4,7,8,7s1.1-0.3,1.5-0.7C9.9,6.7,10.4,7,11,7c0.4,0,0.7-0.1,1-0.3V14H10z"/></g></g>

 <!-- icon name ui-04--> 
<g transform="translate(48, 0)"><g class="nc-icon-wrapper" fill="#c3c2b9"><circle data-color="color-2" fill="#c3c2b9" cx="6" cy="8" r="2"/> <path fill="#c3c2b9" d="M10,2H6C2.7,2,0,4.7,0,8s2.7,6,6,6h4c3.3,0,6-2.7,6-6S13.3,2,10,2z M10,12H6c-2.2,0-4-1.8-4-4s1.8-4,4-4h4 c2.2,0,4,1.8,4,4S12.2,12,10,12z"/></g></g>

 <!-- icon name trash-simple--> 
<g transform="translate(64, 0)"><g class="nc-icon-wrapper" fill="#c3c2b9"><rect data-color="color-2" x="5" y="7" fill="#c3c2b9" width="2" height="6"/> <rect data-color="color-2" x="9" y="7" fill="#c3c2b9" width="2" height="6"/> <path fill="#c3c2b9" d="M12,1c0-0.6-0.4-1-1-1H5C4.4,0,4,0.4,4,1v2H0v2h1v10c0,0.6,0.4,1,1,1h12c0.6,0,1-0.4,1-1V5h1V3h-4V1z M6,2h4 v1H6V2z M13,5v9H3V5H13z"/></g></g>

 <!-- icon name archive-paper--> 
<g transform="translate(80, 0)"><g class="nc-icon-wrapper" fill="#c3c2b9"><path fill="#c3c2b9" d="M14,0.8C13.9,0.3,13.5,0,13,0H3C2.5,0,2.1,0.3,2,0.8c0,0-2,7.7-2,8.2v6c0,0.6,0.4,1,1,1h14c0.6,0,1-0.4,1-1 V9C16,8.5,14,0.8,14,0.8z M3.8,2h8.4l1.5,6H11c-0.6,0-1,0.4-1,1v2H6V9c0-0.6-0.4-1-1-1H2.3L3.8,2z"/></g></g>

 <!-- icon name edit-76.active--> 
<g transform="translate(0, 16)"><g class="nc-icon-wrapper" fill="#f05451"><path data-color="color-2" fill="#f05451" d="M12.7,0.3c-0.4-0.4-1-0.4-1.4,0l-7,7C4.1,7.5,4,7.7,4,8v3c0,0.6,0.4,1,1,1h3 c0.3,0,0.5-0.1,0.7-0.3l7-7c0.4-0.4,0.4-1,0-1.4L12.7,0.3z M7.6,10H6V8.4l6-6L13.6,4L7.6,10z"/> <path fill="#f05451" d="M15,10c-0.6,0-1,0.4-1,1v3H2V2h3c0.6,0,1-0.4,1-1S5.6,0,5,0H1C0.4,0,0,0.4,0,1v14c0,0.6,0.4,1,1,1h14 c0.6,0,1-0.4,1-1v-4C16,10.4,15.6,10,15,10z"/></g></g>

 <!-- icon name camera-19.active--> 
<g transform="translate(16, 16)"><g class="nc-icon-wrapper" fill="#f05451"><path fill="#f05451" d="M15,4h-2.5l-1.7-2.6C10.6,1.2,10.3,1,10,1H6C5.7,1,5.4,1.2,5.2,1.4L3.5,4H1C0.4,4,0,4.4,0,5v9 c0,0.6,0.4,1,1,1h14c0.6,0,1-0.4,1-1V5C16,4.4,15.6,4,15,4z M8,12c-1.7,0-3-1.3-3-3s1.3-3,3-3s3,1.3,3,3S9.7,12,8,12z"/></g></g>

 <!-- icon name shop.active--> 
<g transform="translate(32, 16)"><g class="nc-icon-wrapper" fill="#f05451"><path fill="#f05451" d="M13.9,0.5C13.7,0.2,13.4,0,13,0H3C2.6,0,2.3,0.2,2.1,0.5C0,4.5,0,4.7,0,5c0,1.1,0.9,2,2,2v8c0,0.6,0.4,1,1,1 h10c0.6,0,1-0.4,1-1V7c1.1,0,2-0.9,2-2C16,4.7,16,4.5,13.9,0.5z M10,14v-4H6v4H4V6.7C4.3,6.9,4.6,7,5,7c0.6,0,1.1-0.3,1.5-0.7 C6.9,6.7,7.4,7,8,7s1.1-0.3,1.5-0.7C9.9,6.7,10.4,7,11,7c0.4,0,0.7-0.1,1-0.3V14H10z"/></g></g>

 <!-- icon name ui-04.active--> 
<g transform="translate(48, 16)"><g class="nc-icon-wrapper" fill="#f05451"><circle data-color="color-2" fill="#f05451" cx="6" cy="8" r="2"/> <path fill="#f05451" d="M10,2H6C2.7,2,0,4.7,0,8s2.7,6,6,6h4c3.3,0,6-2.7,6-6S13.3,2,10,2z M10,12H6c-2.2,0-4-1.8-4-4s1.8-4,4-4h4 c2.2,0,4,1.8,4,4S12.2,12,10,12z"/></g></g>

 <!-- icon name trash-simple.active--> 
<g transform="translate(64, 16)"><g class="nc-icon-wrapper" fill="#f05451"><rect data-color="color-2" x="5" y="7" fill="#f05451" width="2" height="6"/> <rect data-color="color-2" x="9" y="7" fill="#f05451" width="2" height="6"/> <path fill="#f05451" d="M12,1c0-0.6-0.4-1-1-1H5C4.4,0,4,0.4,4,1v2H0v2h1v10c0,0.6,0.4,1,1,1h12c0.6,0,1-0.4,1-1V5h1V3h-4V1z M6,2h4 v1H6V2z M13,5v9H3V5H13z"/></g></g>

 <!-- icon name archive-paper.active--> 
<g transform="translate(80, 16)"><g class="nc-icon-wrapper" fill="#f05451"><path fill="#f05451" d="M14,0.8C13.9,0.3,13.5,0,13,0H3C2.5,0,2.1,0.3,2,0.8c0,0-2,7.7-2,8.2v6c0,0.6,0.4,1,1,1h14c0.6,0,1-0.4,1-1 V9C16,8.5,14,0.8,14,0.8z M3.8,2h8.4l1.5,6H11c-0.6,0-1,0.4-1,1v2H6V9c0-0.6-0.4-1-1-1H2.3L3.8,2z"/></g></g>
</svg>